<?xml version="1.0" encoding="UTF-8"?>
<svg id="Layer_1" xmlns="http://www.w3.org/2000/svg" version="1.1" viewBox="0 0 400 400">
  <!-- Generator: Adobe Illustrator 29.5.0, SVG Export Plug-In . SVG Version: 2.1.0 Build 137)  -->
  <defs>
    <style>
      .st0 {
        fill: #263e35;
      }
    </style>
  </defs>
  <path class="st0" d="M342.1,332.9c-86.9,95-240,78.7-307.7-29.7C-38.5,186.5,31.4,30.1,166.5,7.6c183.2-30.5,301.7,187.4,175.6,325.3ZM190.5,18.6C51.2,25.6-28.7,183.7,49,300.6c73.8,110.9,238.5,106.7,306.3-8C428.8,168.5,333.9,11.4,190.5,18.6Z"/>
  <path class="st0" d="M135.5,112.3l50.1,51,2.9-1,50.9-50c32.2-1.2,59.2-2,81.4,24.5,35.8,42.6,8.1,114.5-48.5,114.5h-24l-1.3,1.5c0,.4.8.8.8,1v36.5h-23.5l-1.5-1.5v-88c0-.9.8-3.1.6-4.5l24.4-24v55h25.5c1.6,0,10.3-2.7,12.5-3.5,34-12.9,37-62.1,6.7-80.7-13.2-8.1-29.9-8.1-44.9-6.8l-48.7,49.5v104.5h-24v-103.5l-49.6-50.4c-2.9-2.2-5.7-.1-8.8,0-5.2,0-10.4-.1-15.5,0v154h-24V112.3h58.4Z"/>
  <path class="st0" d="M126,172.3c1-1.3,22,21.5,24,22.5v95.5h-24v-118Z"/>
</svg>