<?xml version="1.0" encoding="UTF-8"?>
<svg id="a" data-name="Layer 1 copy" xmlns="http://www.w3.org/2000/svg" viewBox="0 0 400 400">
  <path d="M342.57,332.71c-86.99,94.86-240.4,78.55-308.14-29.62C-38.61,186.47,31.34,30.37,166.7,7.89c183.43-30.46,302.11,187.16,175.87,324.82ZM191.37,30.23C60.62,36.81-14.44,184.91,58.58,294.41c69.3,103.93,223.84,99.98,287.54-7.5C415.05,170.61,325.97,23.44,191.37,30.23Z" style="fill: #263e35;"/>
  <path d="M109.37,136.3c-.75,0-1.35.62-1.35,1.37v151.29c0,.75-.61,1.36-1.36,1.36h-21.26c-.75,0-1.36-.61-1.36-1.36V113.68c0-.75.61-1.36,1.36-1.36h56.51c.37,0,.72.15.97.41l49.06,50.03c.37.37.91.5,1.41.34l1.84-.62c.19-.07.37-.17.52-.32l50.32-49.44c.24-.24.57-.38.91-.39,32-1.2,58.76-1.8,80.89,24.47,35.85,42.55,8.06,114.52-48.48,114.52h-23.35c-.4,0-.78.17-1.03.48l-.09.15c0,.73,0,0-.05,1.09,0,.09.04.47.05.78v35.14c0,.75-.61,1.36-1.36,1.36h-21.55c-.36,0-.71-.14-.96-.4l-.7-.7c-.25-.26-.4-.6-.4-.96v-87.44c0-.83.64-2.6.61-3.95,0-.36.15-.7.4-.95l21.64-21.32c.86-.85,2.32-.24,2.32.97v50.39c0,.75.61,1.36-1.36,1.36h24.11c1.62,0,10.35-2.7,12.48-3.51,33.96-12.9,36.98-62.1,6.7-80.68-13.07-8.02-29.53-8.09-44.36-6.81-.32.03-.63.17-.85.4l-48,48.7c-.25.25-.39.6-.39.96v102.58c0,.75-.61,1.36-1.36,1.36h-21.26c-.75,0-1.36-.61-1.36-1.36v-101.58c0-.36-.14-.7-.39-.95l-49.19-49.97" style="fill: #263e35;"/>
  <path d="M128.23,173.66c5.29,4.48,18.23,18.29,21.25,20.79.31.26.49.64.49,1.05v93.45c0,.75-.61,1.36-1.36,1.36h-21.26c-.75,0-1.36-.61-1.36-1.36v-114.25c0-1.16,1.35-1.79,2.23-1.05Z" style="fill: #263e35;"/>
</svg>